<?xml version="1.0" encoding="UTF-8" standalone="no"?>
<svg
   width="161.33626"
   height="18"
   viewBox="0 0 161.33626 18"
   fill="none"
   version="1.1"
   id="svg8"
   sodipodi:docname="dns_logo_dark.svg"
   inkscape:version="1.2.2 (b0a8486541, 2022-12-01)"
   xmlns:inkscape="http://www.inkscape.org/namespaces/inkscape"
   xmlns:sodipodi="http://sodipodi.sourceforge.net/DTD/sodipodi-0.dtd"
   xmlns="http://www.w3.org/2000/svg"
   xmlns:svg="http://www.w3.org/2000/svg">
  <defs
     id="defs12">
    <rect
       x="-78.001534"
       y="-3.8436744"
       width="65.49086"
       height="34.063087"
       id="rect445" />
  </defs>
  <sodipodi:namedview
     id="namedview10"
     pagecolor="#505050"
     bordercolor="#ffffff"
     borderopacity="1"
     inkscape:showpageshadow="0"
     inkscape:pageopacity="0"
     inkscape:pagecheckerboard="1"
     inkscape:deskcolor="#505050"
     showgrid="false"
     showguides="false"
     inkscape:zoom="7.4431818"
     inkscape:cx="137.57557"
     inkscape:cy="7.1877863"
     inkscape:window-width="1920"
     inkscape:window-height="958"
     inkscape:window-x="0"
     inkscape:window-y="32"
     inkscape:window-maximized="1"
     inkscape:current-layer="text443" />
  <path
     d="M 117.80646,16.953964 V 1.0460355 h 5.24291 c 4.57069,0 8.17799,3.517669 8.17799,7.953969 0,4.4362595 -3.6073,7.9539595 -8.17799,7.9539595 z m 3.24881,-2.9799 h 1.9941 c 2.93512,0 4.90679,-2.2182 4.90679,-4.9740595 0,-2.75588 -1.97167,-4.97403 -4.90679,-4.97403 h -1.9941 z"
     fill="#ffffff"
     id="path2" />
  <path
     d="m 147.60176,16.953964 h -2.8006 L 136.64546,6.5802045 V 16.953964 h -3.2488 V 1.0460355 h 2.8007 l 8.1556,10.3737285 V 1.0460355 h 3.2488 z"
     fill="#ffffff"
     id="path4" />
  <path
     d="m 149.68536,12.024764 h 3.2488 c 0.224,1.4339 1.4564,2.1957 2.8679,2.1957 1.2995,0 2.263,-0.6049 2.263,-1.6132 0,-0.8514 -0.605,-1.5011 -2.1286,-1.9268 l -1.6804,-0.493 c -2.5094,-0.7169495 -4.145,-2.2853295 -4.1674,-4.7051295 -0.0224,-2.93513 2.1509,-4.70516602 5.3325,-4.70516602 3.4281,0 5.467,2.46460602 5.579,4.83959602 h -3.2264 c -0.3585,-1.34433 -1.4116,-1.83725 -2.3526,-1.83725 -1.1427,0 -2.0389,0.53773 -2.0613,1.47876 -0.0224,0.98585 0.6946,1.52358 1.9941,1.90447 l 1.8596,0.51533 c 2.5767,0.71698 4.1227,2.3525795 4.1227,4.8171895 0,2.7111 -2.1958,4.7276 -5.5342,4.7276 -3.8089,0 -5.9823,-2.5767 -6.1167,-5.1981 z"
     fill="#ffffff"
     id="path6" />
  <g
     id="g1160">
    <g
       aria-label="Fingerprints"
       transform="matrix(2.7418667,0,0,2.7418667,177.73238,7.6756541)"
       id="text443"
       style="font-weight:bold;font-size:6.66667px;line-height:1.25;font-family:Inter;-inkscape-font-specification:'Inter Bold';text-align:center;white-space:pre;shape-inside:url(#rect445);display:inline;fill:#ffffff;stroke-width:3.61016;stroke-linecap:round;stroke-linejoin:round;stop-color:#000000">
      <path
         d="m -64.821669,2.3260495 v -4.8484872 h 3.210229 v 0.8451709 h -2.185134 v 1.15530358 h 1.972066 v 0.84517085 h -1.972066 V 2.3260495 Z"
         id="path408" />
      <path
         d="m -60.941465,2.3260495 v -3.6363654 h 1.008524 v 3.6363654 z m 0.506629,-4.1051156 q -0.224905,0 -0.38589,-0.1491478 -0.158617,-0.1515152 -0.158617,-0.3622161 0,-0.2083334 0.158617,-0.3574812 0.160985,-0.1515152 0.38589,-0.1515152 0.224906,0 0.383523,0.1515152 0.160985,0.1491478 0.160985,0.3574812 0,0.2107009 -0.160985,0.3622161 -0.158617,0.1491478 -0.383523,0.1491478 z"
         id="path410" />
      <path
         d="M -58.119497,0.22377577 V 2.3260495 h -1.008523 v -3.6363654 h 0.961175 v 0.6415723 h 0.04261 q 0.120739,-0.317235 0.40483,-0.5018942 0.284091,-0.1870266 0.688921,-0.1870266 0.378788,0 0.660512,0.1657198 0.281723,0.1657198 0.437973,0.47348507 0.15625,0.30539787 0.15625,0.72916702 V 2.3260495 h -1.008523 V 0.19063181 q 0.0024,-0.33380697 -0.170454,-0.52083358 -0.172823,-0.18939403 -0.475853,-0.18939403 -0.203599,0 -0.359849,0.0875947 -0.153882,0.0875947 -0.241477,0.25568194 -0.08523,0.16571978 -0.0876,0.40009489 z"
         id="path412" />
      <path
         d="m -53.344404,3.7654441 q -0.490058,0 -0.840436,-0.1349432 -0.348012,-0.1325758 -0.553978,-0.3622161 -0.205966,-0.2296403 -0.267519,-0.5160987 l 0.932766,-0.1254736 q 0.04261,0.1089016 0.134943,0.2035986 0.09233,0.094697 0.243845,0.1515152 0.153882,0.059186 0.374053,0.059186 0.329072,0 0.54214,-0.160985 0.215436,-0.1586175 0.215436,-0.5326707 V 1.6821098 h -0.04261 q -0.06629,0.1515152 -0.198863,0.2864585 -0.132576,0.1349432 -0.34091,0.2201705 -0.208333,0.085227 -0.497159,0.085227 -0.409565,0 -0.745739,-0.189394 -0.333807,-0.1917614 -0.532671,-0.5847541 -0.196496,-0.39536 -0.196496,-0.99905346 0,-0.61789802 0.201231,-1.03219746 0.201231,-0.41429944 0.535038,-0.62026548 0.336175,-0.205966 0.736269,-0.205966 0.305398,0 0.511364,0.1041667 0.205966,0.1017993 0.33144,0.25568198 0.127841,0.15151522 0.196496,0.29829559 h 0.03788 V -1.3103159 h 1.001421 v 3.6718768 q 0,0.4640154 -0.227273,0.7765155 -0.227273,0.3125002 -0.629735,0.4687502 -0.400095,0.1586175 -0.920928,0.1586175 z m 0.02131,-2.2490541 q 0.243845,0 0.411932,-0.1207387 0.170455,-0.1231061 0.260417,-0.3503789 0.09233,-0.22964029 0.09233,-0.54924271 0,-0.31960243 -0.08996,-0.55397754 -0.08996,-0.23674254 -0.260417,-0.36695093 -0.170455,-0.1302084 -0.4143,-0.1302084 -0.248579,0 -0.419034,0.13494325 -0.170455,0.13257582 -0.258049,0.36931836 -0.0876,0.23674253 -0.0876,0.54687526 0,0.31486757 0.0876,0.54450781 0.08996,0.2272729 0.258049,0.3527464 0.170455,0.1231061 0.419034,0.1231061 z"
         id="path414" />
      <path
         d="m -49.104348,2.3970723 q -0.56108,0 -0.96591,-0.2272729 -0.402462,-0.2296402 -0.620265,-0.6486745 -0.217803,-0.4214017 -0.217803,-0.99668611 0,-0.56107981 0.217803,-0.98484895 0.217803,-0.42376914 0.613163,-0.66051164 0.397728,-0.2367426 0.932766,-0.2367426 0.359848,0 0.669981,0.1160039 0.3125,0.1136364 0.544508,0.34327664 0.234375,0.22964026 0.364583,0.57765179 0.130209,0.34564411 0.130209,0.80965948 v 0.27698877 h -3.070551 v -0.6250003 h 2.121213 q 0,-0.21780313 -0.0947,-0.38589033 -0.0947,-0.16808721 -0.262784,-0.26278422 -0.16572,-0.0970644 -0.38589,-0.0970644 -0.229641,0 -0.407197,0.10653414 -0.17519,0.10416672 -0.274622,0.28172362 -0.09943,0.17518948 -0.101799,0.39062519 V 0.7682836 q 0,0.2698865 0.09943,0.4663828 0.101799,0.1964963 0.286458,0.3030305 0.184659,0.1065341 0.437974,0.1065341 0.168087,0 0.307765,-0.047349 0.139678,-0.047349 0.23911,-0.1420455 0.09943,-0.094697 0.151515,-0.2320077 l 0.932766,0.061553 q -0.07102,0.3361744 -0.291193,0.5871215 -0.217803,0.2485797 -0.563448,0.3882578 -0.343276,0.1373107 -0.793087,0.1373107 z"
         id="path416" />
      <path
         d="m -46.77717,2.3260495 v -3.6363654 h 0.977747 v 0.63447003 h 0.03788 q 0.09943,-0.33854183 0.333807,-0.51136393 0.234375,-0.1751894 0.539773,-0.1751894 0.07576,0 0.163352,0.00947 0.0876,0.00947 0.153883,0.026042 v 0.89488674 q -0.07102,-0.0213068 -0.196497,-0.0378788 -0.125473,-0.016572 -0.22964,-0.016572 -0.222538,0 -0.397727,0.0970644 -0.172823,0.094697 -0.274622,0.26515164 -0.09943,0.17045463 -0.09943,0.39299261 V 2.3260495 Z"
         id="path418" />
      <path
         d="m -44.052267,3.6896865 v -5.0000024 h 0.994319 v 0.61079577 h 0.04498 q 0.06629,-0.14678037 0.191761,-0.29829559 0.127841,-0.15388268 0.33144,-0.25568198 0.205966,-0.1041667 0.511364,-0.1041667 0.397727,0 0.733902,0.2083335 0.336174,0.20596596 0.537405,0.62263283 0.201231,0.41429944 0.201231,1.03929973 0,0.60842834 -0.196496,1.02746264 -0.194129,0.4166668 -0.530303,0.6321025 -0.333807,0.2130683 -0.748107,0.2130683 -0.29356,0 -0.499526,-0.097064 -0.203599,-0.097064 -0.333807,-0.2438448 -0.130209,-0.1491478 -0.198864,-0.300663 h -0.03078 v 1.9460236 z m 0.987217,-3.18181969 q 0,0.32433728 0.08996,0.56581469 0.08996,0.2414774 0.260417,0.3764206 0.170454,0.1325758 0.414299,0.1325758 0.246212,0 0.416667,-0.1349432 0.170455,-0.1373107 0.258049,-0.3787881 0.08996,-0.24384479 0.08996,-0.56107979 0,-0.31486757 -0.08759,-0.55397753 -0.0876,-0.23910997 -0.25805,-0.37405321 -0.170454,-0.13494325 -0.419034,-0.13494325 -0.246212,0 -0.416667,0.1302084 -0.168087,0.13020839 -0.258049,0.36931836 -0.08996,0.23910996 -0.08996,0.56344723 z"
         id="path420" />
      <path
         d="m -39.83588,2.3260495 v -3.6363654 h 0.977747 v 0.63447003 h 0.03788 q 0.09943,-0.33854183 0.333806,-0.51136393 0.234376,-0.1751894 0.539773,-0.1751894 0.07576,0 0.163353,0.00947 0.0876,0.00947 0.153882,0.026042 v 0.89488674 q -0.07102,-0.0213068 -0.196496,-0.0378788 -0.125473,-0.016572 -0.22964,-0.016572 -0.222538,0 -0.397728,0.0970644 -0.172822,0.094697 -0.274621,0.26515164 -0.09943,0.17045463 -0.09943,0.39299261 V 2.3260495 Z"
         id="path422" />
      <path
         d="m -37.110977,2.3260495 v -3.6363654 h 1.008523 v 3.6363654 z m 0.506629,-4.1051156 q -0.224905,0 -0.38589,-0.1491478 -0.158618,-0.1515152 -0.158618,-0.3622161 0,-0.2083334 0.158618,-0.3574812 0.160985,-0.1515152 0.38589,-0.1515152 0.224906,0 0.383523,0.1515152 0.160985,0.1491478 0.160985,0.3574812 0,0.2107009 -0.160985,0.3622161 -0.158617,0.1491478 -0.383523,0.1491478 z"
         id="path424" />
      <path
         d="M -34.28901,0.22377577 V 2.3260495 h -1.008523 v -3.6363654 h 0.961175 v 0.6415723 h 0.04261 q 0.120738,-0.317235 0.404829,-0.5018942 0.284091,-0.1870266 0.688921,-0.1870266 0.378788,0 0.660512,0.1657198 0.281723,0.1657198 0.437974,0.47348507 0.15625,0.30539787 0.15625,0.72916702 V 2.3260495 h -1.008524 V 0.19063181 q 0.0024,-0.33380697 -0.170454,-0.52083358 -0.172822,-0.18939403 -0.475853,-0.18939403 -0.203598,0 -0.359848,0.0875947 -0.153883,0.0875947 -0.241478,0.25568194 -0.08523,0.16571978 -0.0876,0.40009489 z"
         id="path426" />
      <path
         d="m -29.217987,-1.3103159 v 0.75757615 h -2.189869 V -1.3103159 Z m -1.692709,-0.8712125 h 1.008523 v 3.3901531 q 0,0.1396781 0.04261,0.2178032 0.04261,0.075758 0.118371,0.1065341 0.07813,0.030776 0.179924,0.030776 0.07102,0 0.142046,-0.011837 0.07102,-0.014204 0.108901,-0.021307 l 0.158618,0.7504738 q -0.07576,0.023674 -0.213069,0.054451 -0.13731,0.033144 -0.333807,0.040246 -0.364583,0.014205 -0.639204,-0.097064 -0.272254,-0.111269 -0.423769,-0.3456441 -0.151516,-0.2343751 -0.149148,-0.5918564 z"
         id="path428" />
      <path
         d="m -25.58589,-0.27338356 -0.923296,0.0568182 q -0.02367,-0.11837127 -0.101799,-0.21306828 -0.07813,-0.0970644 -0.205966,-0.15388265 -0.125474,-0.0591856 -0.300663,-0.0591856 -0.234375,0 -0.39536,0.0994319 -0.160985,0.0970644 -0.160985,0.26041679 0,0.1302084 0.104167,0.22017056 0.104166,0.08996216 0.357481,0.14441295 l 0.658144,0.13257582 q 0.530304,0.10890156 0.79072,0.35037895 0.260417,0.24147739 0.260417,0.63446998 0,0.3574813 -0.210701,0.6273677 -0.208333,0.2698865 -0.572917,0.4214018 -0.362216,0.1491478 -0.835701,0.1491478 -0.722065,0 -1.150569,-0.3006631 -0.426136,-0.3030304 -0.499526,-0.823864 l 0.991951,-0.052083 q 0.04498,0.2201705 0.217803,0.3361744 0.172822,0.1136364 0.442709,0.1136364 0.265151,0 0.426136,-0.1017993 0.163352,-0.1041667 0.16572,-0.2675191 -0.0024,-0.1373107 -0.116004,-0.2249054 -0.113636,-0.0899622 -0.350379,-0.13731067 l -0.629735,-0.12547354 q -0.532671,-0.10653414 -0.793088,-0.36931836 -0.258049,-0.26278422 -0.258049,-0.66998138 0,-0.35037896 0.189394,-0.60369347 0.191762,-0.25331448 0.537406,-0.39062518 0.348011,-0.1373107 0.814394,-0.1373107 0.688921,0 1.084281,0.2911933 0.397727,0.29119336 0.464015,0.79308754 z"
         id="path430" />
    </g>
  </g>
</svg>
